<svg width="145" height="44" viewBox="0 0 145 44" fill="none" xmlns="http://www.w3.org/2000/svg">
<g clip-path="url(#clip0_71_920)">
<mask id="mask0_71_920" style="mask-type:luminance" maskUnits="userSpaceOnUse" x="0" y="0" width="145" height="44">
<path d="M145 0H0V44H145V0Z" fill="white"/>
</mask>
<g mask="url(#mask0_71_920)">
<path d="M76.8936 9.97416C77.3471 9.97145 77.7839 10.1486 78.1085 10.4668C78.4134 10.7748 78.7034 11.0951 78.9868 11.4227L88.6261 22.6198C88.8265 22.8628 89.0438 23.0916 89.2759 23.3047C89.7282 23.6989 90.122 23.5806 90.2843 22.9943C90.3875 22.6149 90.4395 22.2232 90.5057 21.834C91.1471 18.262 92.8042 14.9512 95.2776 12.2987C97.7509 9.64633 100.936 7.76476 104.45 6.87982C111.298 5.10605 118.146 3.32979 124.994 1.55106C126.497 1.16181 127.99 0.738073 129.495 0.356213C130.757 0.0359437 131.202 0.269986 131.665 1.49933C132.472 3.63527 133.251 5.78108 134.048 7.92195C137.541 17.3165 141.033 26.7086 144.524 36.0982C144.669 36.4875 144.795 36.8817 144.92 37.2734C145.022 37.5544 145.027 37.8617 144.934 38.1458C144.84 38.4299 144.655 38.6745 144.406 38.8402C144.249 38.9641 144.084 39.0792 143.914 39.1852C143.454 39.4857 142.992 39.7863 142.524 40.077C141.294 40.8382 140.864 40.7717 139.895 39.6705C139.74 39.4931 139.585 39.3132 139.433 39.1334C136.106 35.2704 132.776 31.4108 129.446 27.5545C129.22 27.2797 128.973 27.0228 128.708 26.7858C128.29 26.431 127.923 26.5394 127.768 27.0642C127.667 27.4649 127.59 27.8713 127.537 28.2812C126.953 31.7953 125.384 35.071 123.015 37.7281C120.646 40.3851 117.572 42.3143 114.152 43.2916C110.731 44.2688 107.104 44.254 103.692 43.2489C100.279 42.2438 97.2216 40.2896 94.8742 37.6133C91.9891 34.3047 89.1529 30.9616 86.2917 27.6209C85.1443 26.2758 83.9867 24.934 82.8189 23.5954C82.6285 23.3701 82.4131 23.1675 82.1768 22.9918C81.931 22.8095 81.6851 22.9499 81.7317 23.2604C81.7866 23.5896 81.8743 23.9124 81.9948 24.2237C82.5432 25.7215 83.1041 27.2144 83.6603 28.7074C84.5309 31.0528 85.4014 33.3964 86.272 35.7385C86.4003 36.0883 86.5185 36.4481 86.6092 36.8078C86.6683 37.0265 86.6653 37.2572 86.6014 37.4746C86.5376 37.6919 86.4153 37.8874 86.2476 38.0395C86.1241 38.1668 85.9868 38.2807 85.8394 38.3795C85.232 38.7786 84.6269 39.1852 83.9998 39.5546C83.0647 40.109 82.5557 39.9464 82.15 38.9511C81.7633 38.0026 81.4119 37.0369 81.0652 36.0785C78.2511 28.512 75.4382 20.9462 72.6253 13.3813C72.4964 13.0334 72.3861 12.679 72.2936 12.3195C72.1289 11.674 72.3455 11.2552 72.9452 10.9793C73.0353 10.9379 73.1284 10.9042 73.2232 10.8783C74.3254 10.5941 75.4287 10.3125 76.5344 10.0333C76.6525 10.0059 76.7725 9.98616 76.8936 9.97416ZM95.3044 25.1623C95.302 27.2285 95.7615 29.2691 96.6494 31.1342C97.5367 32.9995 98.8304 34.642 100.434 35.9414C102.038 37.2408 103.912 38.1641 105.919 38.6435C107.925 39.123 110.014 39.1464 112.031 38.7121C117.826 37.4803 122.278 32.5531 122.854 26.6749C123.183 23.7114 122.542 20.7208 121.028 18.1533C120.888 17.9069 120.748 17.6778 120.633 17.429C120.364 16.8427 120.421 16.3697 120.93 16.0051C121.727 15.4335 122.566 14.9137 123.412 14.416C123.636 14.2818 123.898 14.2278 124.156 14.2633C124.414 14.2986 124.652 14.4212 124.831 14.6106C125.093 14.8515 125.339 15.1081 125.569 15.3793C128.277 18.5081 130.982 21.6393 133.684 24.773C133.901 25.0194 134.12 25.2806 134.351 25.5121C134.471 25.6423 134.608 25.755 134.759 25.8471C134.975 25.9703 135.182 25.862 135.16 25.618C135.132 25.3259 135.067 25.0385 134.966 24.7632C132.834 19.0016 130.695 13.2425 128.548 7.48587C128.466 7.26473 128.369 7.04985 128.255 6.84287C128.143 6.60907 127.955 6.42035 127.722 6.30757C127.488 6.1948 127.224 6.16467 126.972 6.22205C126.723 6.26568 126.476 6.32156 126.234 6.38961C123.132 7.1927 120.031 7.99748 116.931 8.80394C113.165 9.78936 109.391 10.7329 105.638 11.7603C99.4641 13.4503 95.3068 18.8776 95.3044 25.1623Z" fill="black"/>
<path d="M38.6911 27.1454C36.7429 27.1454 34.7948 27.1454 32.8467 27.1454C32.5326 27.1461 32.2193 27.1792 31.9119 27.2439C31.8132 27.2559 31.718 27.2878 31.6319 27.3376C31.5457 27.3873 31.4705 27.4541 31.4108 27.5337C31.3511 27.6133 31.3081 27.7042 31.2842 27.8009C31.2605 27.8976 31.2564 27.9981 31.2724 28.0963C31.2881 28.3314 31.3378 28.563 31.42 28.7837C32.0884 30.7242 33.4311 32.3592 35.2031 33.3906C36.605 34.1829 38.2293 34.4878 39.8225 34.2578C43.1924 33.8366 45.598 32.011 47.1132 29.0055C48.1997 26.8891 48.6741 24.5108 48.4829 22.1388C48.2916 19.7668 47.4424 17.4955 46.0309 15.5812C44.3583 13.3345 42.1716 11.8095 39.4044 11.2749C35.5918 10.5358 32.1874 11.4621 29.2653 14.0439C27.8014 15.3766 26.6757 17.0395 25.9815 18.8948C25.2435 20.7228 24.5819 22.5754 23.8931 24.4182C22.86 27.1922 21.8294 29.9621 20.8012 32.728C20.6906 33.0434 20.5557 33.3498 20.3978 33.6444C20.2905 33.8818 20.1036 34.0741 19.8695 34.188C19.6354 34.3018 19.3689 34.33 19.1163 34.2677C18.2136 34.073 17.3133 33.8587 16.4327 33.5828C15.7637 33.3734 15.5571 32.9349 15.6948 32.2426C15.7468 32.0128 15.8158 31.7872 15.9014 31.5676C16.2384 30.6413 16.5852 29.7199 16.9173 28.7936C17.0087 28.5557 17.0707 28.3075 17.1018 28.0545C17.1181 27.9663 17.1168 27.8757 17.098 27.788C17.0793 27.7003 17.0433 27.6172 16.9924 27.5435C16.9414 27.4698 16.8763 27.4069 16.8009 27.3584C16.7256 27.3099 16.6414 27.2769 16.5533 27.2612C16.307 27.1941 16.0533 27.1585 15.7981 27.1553C14.46 27.1553 13.1219 27.1553 11.7838 27.1553C11.7051 27.1553 11.6264 27.1553 11.5378 27.1553C11.1519 27.1436 10.7731 27.261 10.4613 27.489C10.1495 27.717 9.92246 28.0425 9.81601 28.4142C9.00669 30.6142 8.17781 32.8043 7.3562 34.9994C6.60602 37.0097 5.86069 39.0224 5.10555 41.0328C5.00609 41.3103 4.88349 41.579 4.73904 41.8359C4.63062 42.0592 4.45045 42.2396 4.22744 42.3482C4.00444 42.4567 3.75149 42.4872 3.50917 42.4346C2.60644 42.2424 1.70617 42.0305 0.825577 41.7546C0.0876509 41.523 -0.128807 41.0155 0.0876515 40.2764C0.225397 39.8059 0.404959 39.3452 0.579602 38.8845L14.3936 1.72594C14.5018 1.43031 14.6125 1.13468 14.7478 0.848903C15.0848 0.141848 15.4783 -0.0675585 16.2605 0.0211311C16.3774 0.035925 16.4933 0.0581422 16.6074 0.0876488C17.178 0.230537 17.7511 0.370963 18.3292 0.523706C18.5575 0.585784 18.7798 0.668232 18.9933 0.770065C19.2258 0.858101 19.4164 1.031 19.5268 1.25402C19.6373 1.47705 19.6593 1.73366 19.5886 1.97231C19.5143 2.27857 19.4181 2.57907 19.3008 2.87152C17.5855 7.48668 15.8727 12.1018 14.1624 16.717C13.7229 17.8995 13.2843 19.0812 12.8464 20.2621C12.7463 20.5189 12.6641 20.7823 12.6004 21.0504C12.4897 21.5703 12.684 21.8979 13.1907 22.0359C13.4189 22.0949 13.6537 22.1247 13.8893 22.1246C15.2274 22.1246 16.5655 22.1246 17.9037 22.1246C18.0217 22.1246 18.1496 22.1246 18.2579 22.1098C18.6057 22.1117 18.945 22.002 19.2261 21.7967C19.5072 21.5915 19.7152 21.3015 19.8198 20.9692C20.292 19.6955 20.7791 18.4267 21.2391 17.1481C21.9678 15.0799 23.0868 13.1712 24.5351 11.5262C26.211 9.6114 28.3098 8.11468 30.6647 7.15493C33.0195 6.19519 35.5655 5.79898 38.1001 5.99775C40.6347 6.19652 43.088 6.98478 45.265 8.2999C47.442 9.61508 49.2826 11.4208 50.6405 13.5734C50.8299 13.8715 51.0045 14.1819 51.221 14.4628C51.6072 14.9678 52.0155 14.9358 52.323 14.379C52.4465 14.1517 52.5526 13.9154 52.6403 13.6719C52.9232 12.9156 53.1863 12.1519 53.4791 11.4005C53.907 10.3067 54.3474 10.0677 55.4813 10.3215C56.1135 10.4643 56.7382 10.6442 57.3655 10.8142C57.4793 10.8458 57.591 10.8844 57.7 10.93C58.3666 11.2059 58.5978 11.642 58.4379 12.3392C58.3704 12.6062 58.2883 12.8694 58.1919 13.1275C57.4081 15.2511 56.6227 17.3747 55.8355 19.4984C54.6253 22.7651 53.4028 26.0294 52.2074 29.3035C51.3506 31.7767 49.8664 33.984 47.9003 35.7089C45.9449 37.417 43.5341 38.5164 40.9639 38.8722C38.9326 39.1719 36.8595 38.9913 34.9104 38.345C32.367 37.5172 30.3697 35.9429 28.8004 33.8095C27.0528 31.4481 26.0993 28.5917 26.0774 25.6525C26.004 22.5309 26.9535 19.4711 28.7807 16.9412C30.3869 14.6574 32.5786 13.2457 35.3482 12.8294C37.7987 12.446 40.3033 13.0071 42.3573 14.3996C44.4112 15.7921 45.8619 17.9125 46.4171 20.3335C46.8205 22.0827 46.7689 23.8516 46.5278 25.6205C46.5278 25.6796 46.5008 25.7363 46.4885 25.7954C46.2597 26.766 45.844 27.1257 44.8355 27.1331C42.789 27.1503 40.7425 27.1331 38.6861 27.1331L38.6911 27.1454ZM36.8191 22.1246C37.8424 22.1246 38.8657 22.1246 39.8889 22.1246C40.1439 22.1263 40.3985 22.1032 40.649 22.0556C41.2787 21.9226 41.5173 21.5432 41.3475 20.9371C41.2701 20.6521 41.1552 20.3787 41.0057 20.1241C40.0955 18.5794 38.7132 17.764 36.92 17.7394C35.0309 17.7148 33.5919 18.5474 32.6376 20.1857C32.4919 20.4428 32.3826 20.7189 32.3129 21.0061C32.2735 21.1138 32.259 21.2291 32.2702 21.3432C32.2814 21.4574 32.3181 21.5675 32.3777 21.6655C32.4372 21.7635 32.5181 21.8468 32.6141 21.9092C32.7103 21.9717 32.8192 22.0116 32.9328 22.026C33.2003 22.0893 33.4745 22.1207 33.7494 22.1197C34.7727 22.132 35.7959 22.1246 36.8191 22.1246Z" fill="black"/>
<path d="M65.4012 6.17578L67.4622 6.25956C67.7808 6.263 68.0899 6.36534 68.3477 6.55249C68.6055 6.73958 68.7988 7.0022 68.9015 7.30411C69.1962 8.04319 69.4767 8.78227 69.75 9.50658C73.1655 18.6958 76.5805 27.8842 79.9948 37.0719C80.3171 37.939 80.6465 38.7964 80.9561 39.6759C81.3721 40.8584 81.2169 41.3191 80.1745 42.0213C79.6672 42.3587 79.1487 42.679 78.6296 43.0067C78.481 43.1023 78.3247 43.1847 78.1624 43.2531C77.5889 43.4994 77.1611 43.3565 76.8585 42.8244C76.7088 42.5466 76.5817 42.2575 76.4772 41.9597C74.8685 37.6434 73.2616 33.3272 71.6559 29.0109C71.5365 28.6754 71.3999 28.3464 71.2453 28.0255C71.151 27.8065 71.0007 27.6166 70.8091 27.475C70.6176 27.3335 70.392 27.2455 70.1557 27.2199C69.8842 27.1786 69.6109 27.1531 69.3364 27.1435C66.739 27.1435 64.1421 27.1435 61.5464 27.1435C61.291 27.1531 61.0368 27.1761 60.7838 27.2125C60.5278 27.2375 60.2832 27.3328 60.0773 27.488C59.8721 27.6431 59.7127 27.8522 59.618 28.092C59.4951 28.3605 59.3721 28.634 59.2786 28.9099C57.7536 33.0044 56.2285 37.099 54.7035 41.1935C54.5682 41.563 54.4182 41.9325 54.2583 42.2873C54.1442 42.5639 53.9335 42.7895 53.6655 42.9219C53.3976 43.0543 53.0907 43.0844 52.8021 43.0067C51.9854 42.7948 51.159 42.615 50.3546 42.3637C49.5503 42.1124 49.2994 41.6246 49.5503 40.7599C49.6438 40.4396 49.7594 40.1243 49.8775 39.8114C53.0932 31.1625 56.3097 22.5111 59.527 13.8573C60.2552 11.9045 60.9849 9.95002 61.7165 7.99395C61.8245 7.69794 61.9474 7.40772 62.0853 7.12425C62.1933 6.87918 62.3681 6.66942 62.5895 6.51874C62.8109 6.36805 63.0698 6.28253 63.3371 6.27186C64.0431 6.2275 64.7513 6.20532 65.4012 6.17578ZM65.4304 22.1227C66.0575 22.1227 66.6877 22.1227 67.3172 22.1227C67.5141 22.1236 67.711 22.1072 67.9049 22.0734C68.5762 21.9379 68.7809 21.598 68.6156 20.918C68.5947 20.8222 68.5685 20.7277 68.5369 20.6347C67.7271 18.4568 66.9162 16.279 66.1047 14.1012C66.0378 13.9165 65.9424 13.7436 65.8218 13.5888C65.7807 13.5283 65.7258 13.4788 65.6613 13.4445C65.5975 13.4103 65.5253 13.3924 65.4525 13.3924C65.3797 13.3924 65.3081 13.4103 65.2436 13.4445C65.1792 13.4788 65.1243 13.5283 65.0837 13.5888C64.9465 13.7813 64.8361 13.9919 64.7567 14.2145C63.9744 16.2971 63.1987 18.3821 62.4296 20.4696C62.3442 20.6892 62.2863 20.9183 62.2571 21.1521C62.2326 21.249 62.2285 21.3501 62.2458 21.4486C62.2637 21.5471 62.3019 21.6408 62.3585 21.7232C62.4152 21.8057 62.4886 21.8749 62.5746 21.9265C62.6599 21.9779 62.756 22.0104 62.855 22.0217C63.0835 22.0784 63.3181 22.1082 63.5538 22.1104C64.1713 22.1301 64.8009 22.1227 65.4304 22.1227Z" fill="black"/>
<path d="M109.07 37.4953C102.124 37.3918 96.7471 31.829 96.833 25.0245C96.8635 22.5923 97.6117 20.2236 98.9842 18.2168C100.356 16.21 102.291 14.655 104.544 13.748C106.797 12.8409 109.269 12.6223 111.646 13.1197C114.023 13.6171 116.2 14.8083 117.902 16.5431C119.605 18.2779 120.756 20.4785 121.212 22.8677C121.667 25.257 121.406 27.7277 120.461 29.9685C119.517 32.2094 117.931 34.1199 115.904 35.4594C113.877 36.7989 111.499 37.5073 109.07 37.4953ZM101.989 25.1108C101.905 29.188 105.305 32.2552 108.965 32.3365C109.913 32.3714 110.86 32.2169 111.749 31.8819C112.637 31.547 113.451 31.0382 114.141 30.3853C114.832 29.7325 115.386 28.9485 115.771 28.0791C116.156 27.2096 116.364 26.2722 116.384 25.3213C116.404 24.3704 116.234 23.4251 115.886 22.5404C115.537 21.6557 115.017 20.8494 114.354 20.1683C113.691 19.4872 112.899 18.945 112.025 18.5733C111.151 18.2016 110.212 18.0078 109.262 18.0033C105.378 17.9342 101.964 21.0975 101.989 25.1108Z" fill="black"/>
<path d="M109.198 30.7399C112.164 30.7399 114.569 28.3112 114.569 25.3153C114.569 22.3193 112.164 19.8906 109.198 19.8906C106.233 19.8906 103.828 22.3193 103.828 25.3153C103.828 28.3112 106.233 30.7399 109.198 30.7399Z" fill="#E25D0E"/>
</g>
</g>
<defs>
<clipPath id="clip0_71_920">
<rect width="145" height="44" fill="white"/>
</clipPath>
</defs>
</svg>
