<svg width="222" height="44" viewBox="0 0 222 44" fill="none" xmlns="http://www.w3.org/2000/svg">
<path fill-rule="evenodd" clip-rule="evenodd" d="M21.4177 16.2105L21.4368 16.2466C21.9965 16.2466 22.412 15.6275 22.5055 14.8433C22.0457 14.9957 21.5937 15.156 21.145 15.3147C21.0895 15.409 21.034 15.5033 20.9706 15.5866C20.7644 15.8066 21.1355 16.2089 21.4177 16.2089V16.2105ZM47.9753 16.729C46.8003 12.0147 37.5999 10.8425 26.5887 13.649C26.1955 13.9413 25.7467 14.0733 25.3995 14.1283C24.4845 14.2619 24.1563 14.3216 24.0675 14.9077C23.9802 15.4939 25.5422 15.783 26.5935 15.0225C27.3007 14.5133 27.8097 13.4086 28.4377 13.3316C29.2527 13.2357 29.4002 15.3572 28.934 16.4022C28.4662 17.4472 26.8932 18.1213 26.3017 17.5933C26.0988 17.4016 26.1273 17.2947 26.0988 16.8469C26.0702 16.3975 25.03 16.4807 25.03 17.1627C25.0617 17.6389 25.0395 18.1213 24.9602 18.5927C24.6684 20.0919 21.9585 20.3307 21.256 20.2522C20.5583 20.1736 19.702 19.6283 20.119 19.2889C21.0752 18.5425 20.479 16.7966 19.0962 16.0863C18.6618 16.2592 18.232 16.4383 17.8055 16.6222C17.8494 16.7287 17.9184 16.8234 18.0067 16.8983C18.0949 16.9731 18.1999 17.0261 18.3129 17.0527C18.608 17.1409 18.8674 17.319 19.0543 17.5619C19.2412 17.8047 19.346 18.0998 19.3537 18.4051C19.3614 18.7104 19.2717 19.0103 19.0974 19.2621C18.923 19.5139 18.6729 19.7048 18.3827 19.8075C16.575 20.7975 15.3492 18.9636 15.243 18.5613C15.1557 18.2313 15.0257 18.1025 14.7022 18.0663C6.3138 22.2919 0.962019 27.806 1.96895 31.9027C3.27399 37.1733 14.6325 38.0219 27.3324 33.823C40.034 29.6257 49.2835 22.0043 47.9753 16.729Z" fill="url(#paint0_linear_71_953)"/>
<path fill-rule="evenodd" clip-rule="evenodd" d="M21.5521 12.187C21.4151 12.2117 21.2909 12.2826 21.2007 12.3878C21.1105 12.4929 21.0598 12.6258 21.0573 12.7637C21.0748 13.1 21.4728 13.3326 21.4728 13.9156C21.5251 14.5162 21.3448 15.114 20.9685 15.5876C20.7655 15.8076 21.135 16.2115 21.4173 16.2115L21.4363 16.2476C22.0785 16.2476 22.532 15.432 22.5225 14.4782C22.6018 13.3279 22.1435 11.9906 21.5521 12.1839V12.187ZM25.3625 12.1776C25.4477 12.1204 25.5152 12.041 25.5576 11.9482C25.5882 11.8784 25.6038 11.8031 25.6031 11.727C25.6025 11.6509 25.5857 11.5758 25.5538 11.5066C25.5219 11.4374 25.4757 11.3756 25.4182 11.3252C25.3607 11.2749 25.2931 11.2371 25.2198 11.2143C24.9233 11.2803 24.6172 11.285 24.3223 11.2332C24.0264 11.1784 23.7438 11.0679 23.4898 10.9079C23.0632 10.5732 23.2773 9.47003 23.2773 9.47003C23.2948 9.10231 22.8967 8.96088 22.754 8.95145C22.6066 8.94203 22.2688 8.88231 22.0563 9.43231C21.9485 9.85031 21.9675 10.3312 22.0833 10.7476C22.199 11.1656 22.421 11.5459 22.7255 11.8523C23.087 12.1509 23.531 12.3395 23.9988 12.3976C24.465 12.4573 24.9423 12.3803 25.3673 12.1776H25.3625ZM45.398 36.6667C44.426 33.8162 39.8005 28.0396 34.5613 24.0403C33.6003 23.0126 33.3958 21.5417 32.9898 20.1306C32.4295 18.6187 32.1626 17.0155 32.2033 15.4053C32.4523 14.2629 32.7757 13.1409 33.1738 12.0456C33.8176 9.71202 34.344 7.34231 34.7468 4.95845C34.976 3.66225 34.9431 2.33382 34.6501 1.05031C34.2108 -0.697118 27.5175 4.39117 26.2743 5.2256C24.9772 4.58019 23.5815 4.1512 22.1435 3.95588C19.2718 3.67145 16.3715 4.04231 13.6711 5.04174C11.321 3.42788 7.41225 0.182882 6.09135 0.682597H6.11831C4.90206 1.18231 5.47451 3.64788 5.72029 5.1376C6.31176 8.67174 7.80075 12.7229 8.18925 15.949C9.59102 27.609 10.1048 34.495 22.3703 41.6576C23.7245 42.3412 25.1453 42.8912 26.6073 43.2982C29.617 43.6926 30.7365 42.2626 30.7365 41.3009C30.6177 40.2583 30.1334 39.29 29.368 38.565C28.3786 37.4682 26.7643 36.2032 26.0143 35.3012C27.9798 35.0713 29.928 34.7143 31.8465 34.2326C32.4726 34.0033 33.1252 33.8523 33.789 33.7832C34.1206 33.8271 34.428 33.9791 34.6627 34.2153C35.4921 34.8973 36.277 35.6265 37.0255 36.3965C37.9936 37.4768 39.0472 38.4789 40.1763 39.3932C40.8262 39.923 41.6377 40.2196 42.4792 40.2347C43.3206 40.2498 44.1425 39.9826 44.8113 39.4765C45.203 39.1323 45.4726 38.675 45.5788 38.1659C45.6862 37.6589 45.6245 37.1311 45.4028 36.662L45.398 36.6667ZM28.9383 16.4032C28.4705 17.4482 26.8975 18.1223 26.306 17.5959C26.1031 17.4026 26.1316 17.2973 26.1031 16.8479C26.0745 16.3985 25.0343 16.4817 25.0343 17.1653C25.066 17.6415 25.0438 18.1239 24.9645 18.5953C24.6727 20.0929 21.9628 20.3317 21.2603 20.2532C20.5626 20.1746 19.7063 19.6309 20.1217 19.2915C21.1366 18.5026 20.4135 16.6012 18.869 15.9773C18.314 15.7667 18.1015 15.6882 17.897 15.8909C17.8216 15.9887 17.7724 16.1038 17.7543 16.2256C17.737 16.3453 17.7479 16.4674 17.786 16.5823C17.8288 16.697 17.897 16.8023 17.9905 16.8809C18.0825 16.9626 18.1935 17.0223 18.314 17.0506C18.6108 17.1364 18.8722 17.3136 19.0604 17.5566C19.2486 17.7997 19.3538 18.0958 19.3606 18.402C19.3686 18.7077 19.2774 19.0079 19.1005 19.2585C18.9261 19.5114 18.6752 19.7029 18.3838 19.8053C16.5761 20.7953 15.3487 18.9615 15.2441 18.5576C15.1363 18.1553 14.9698 18.05 14.456 18.05C11.9965 17.9715 12.0378 17.0035 11.792 16.2932C11.5478 15.5829 12.1726 15.2482 12.2788 15.3315C12.6435 15.6426 13.1018 15.8312 13.5823 15.8673C14.096 15.7809 14.05 16.0967 14.5543 16.7426C15.4106 17.8379 16.1495 16.3985 15.6643 16.1297C14.5955 15.5232 14.8778 14.552 15.2568 14.3415C15.3478 14.306 15.4288 14.2494 15.493 14.1765C15.5559 14.1018 15.6 14.0135 15.6217 13.9187C15.6435 13.8239 15.6423 13.7254 15.6183 13.6312C15.5923 13.5377 15.5445 13.4516 15.4788 13.3797C15.3483 13.2557 15.1744 13.1864 14.9935 13.1864C14.8127 13.1864 14.6388 13.2557 14.5083 13.3797C13.855 13.9753 14.2625 14.7123 13.7218 14.7626C12.9163 14.8223 11.543 13.8606 12.1075 11.9403C12.6721 10.02 15.0205 10.02 15.0205 10.02L14.9603 10.6832C15.0011 11.0915 15.127 11.487 15.3301 11.8446C15.5332 12.2022 15.809 12.5141 16.14 12.7606C17.6068 13.5856 19.1227 13.1817 19.2385 12.627C19.3083 12.2829 18.8326 11.8806 18.073 11.9262C17.6171 11.9763 17.1579 11.8647 16.7771 11.6113C16.3963 11.3578 16.1183 10.9789 15.9926 10.5417C15.9333 10.0187 16.0607 9.49171 16.3525 9.05203C16.6443 8.61203 17.0788 8.28203 17.5894 8.12174C17.9744 7.98042 18.3978 7.98037 18.7829 8.12161C19.168 8.26285 19.4894 8.53604 19.6888 8.89174C19.7428 8.99231 19.757 9.11174 19.8316 9.19817C19.9407 9.33346 20.0966 9.42391 20.269 9.45206C20.4415 9.4802 20.6184 9.44406 20.7655 9.3506C20.7655 9.3506 21.6995 7.93002 22.8238 8.00702C23.1473 8.0306 23.4581 8.13117 23.734 8.29617C24.0115 8.46117 24.243 8.69531 24.4095 8.97031C24.4095 8.97031 26.9863 8.46117 27.4113 10.7067C27.906 13.2839 26.3155 13.9926 25.399 14.1262C24.484 14.2582 24.1558 14.3179 24.067 14.9056C23.9798 15.4917 25.5417 15.7809 26.593 15.0203C27.3003 14.5112 27.8093 13.4065 28.4388 13.3279C29.2523 13.2336 29.3998 15.355 28.9336 16.3985L28.9383 16.4032Z" fill="#0E0E11"/>
<path d="M21.549 20.3816C21.4285 20.3816 21.3317 20.3769 21.2525 20.3659C20.7117 20.3077 20.0267 19.9683 19.9157 19.5959C19.8745 19.4497 19.9205 19.3083 20.0552 19.203C20.3882 18.9421 20.531 18.5336 20.4612 18.0433C20.3454 17.2324 19.6747 16.4247 18.8279 16.0821C18.2697 15.8669 18.1254 15.8339 17.9875 15.9627C17.9265 16.0434 17.8867 16.138 17.8717 16.2377C17.8576 16.339 17.8668 16.4422 17.8987 16.5394C17.9346 16.6361 17.9939 16.7225 18.0713 16.7913C18.1486 16.86 18.2418 16.909 18.3427 16.9339C18.6631 17.0276 18.9454 17.2195 19.1491 17.4821C19.3528 17.7446 19.4674 18.0643 19.4765 18.3953C19.4866 18.7244 19.3906 19.048 19.2023 19.3193C19.0141 19.5906 18.7435 19.7954 18.4299 19.9039C17.7924 20.2527 17.1597 20.2983 16.554 20.0421C15.7262 19.6886 15.2061 18.8636 15.1332 18.5807C15.046 18.2507 14.9492 18.158 14.4577 18.158C12.1917 18.0889 11.9522 17.2466 11.762 16.5677C11.7392 16.4849 11.7144 16.4026 11.6874 16.321C11.5162 15.8244 11.7255 15.463 11.9744 15.2933C12.095 15.2116 12.2567 15.1519 12.3582 15.2336C12.7055 15.5274 13.1304 15.705 13.5839 15.7474C14.0105 15.683 14.1342 15.8841 14.3245 16.1874C14.4038 16.3163 14.5052 16.4813 14.6527 16.6683C14.8747 16.9527 15.0967 17.0721 15.3044 17.0171C15.5217 16.9574 15.6787 16.7044 15.7072 16.4939C15.7167 16.4341 15.7215 16.2833 15.6152 16.2236C14.9112 15.8244 14.8065 15.3074 14.8065 15.0324C14.8065 14.693 14.9714 14.3677 15.203 14.2341L15.2172 14.2263C15.2914 14.1974 15.3577 14.1517 15.4107 14.0927C15.4618 14.0327 15.4981 13.9616 15.5166 13.8852C15.535 13.8088 15.5351 13.7292 15.5169 13.6527C15.4969 13.5767 15.4569 13.5074 15.4012 13.4516C15.2929 13.3499 15.1491 13.2936 15 13.2944C14.8484 13.2957 14.7029 13.3535 14.5925 13.4563C14.2912 13.7313 14.2404 14.0283 14.1897 14.2939C14.1437 14.561 14.093 14.8391 13.733 14.8721C13.2573 14.9036 12.6959 14.6286 12.3312 14.1839C11.8555 13.6024 11.735 12.7916 11.9982 11.9021C12.5802 9.92214 15 9.89857 15.0222 9.89857H15.1475L15.0777 10.6733C15.1205 11.063 15.2363 11.4339 15.4297 11.778C15.6232 12.1221 15.8832 12.4144 16.202 12.6533C17.1819 13.2033 18.1857 13.1939 18.7502 12.9424C18.9627 12.8466 19.0975 12.7224 19.1244 12.5936C19.1435 12.5119 19.107 12.4144 19.0293 12.3233C18.885 12.163 18.5599 11.998 18.0794 12.0294C17.597 12.0817 17.1114 11.9632 16.7086 11.6949C16.3059 11.4266 16.0118 11.0257 15.8785 10.5633V10.5444C15.8135 9.99443 15.9482 9.44128 16.2527 8.97771C16.5587 8.51414 17.0154 8.17157 17.5482 8.00186C17.9542 7.84943 18.4045 7.84943 18.8152 8.00186C19.2275 8.15271 19.5684 8.44657 19.7825 8.82686C19.8095 8.87714 19.8285 8.92743 19.8459 8.973C19.8597 9.02418 19.8834 9.07221 19.9157 9.11443C19.9755 9.18967 20.053 9.24912 20.1416 9.2875C20.2301 9.32588 20.3268 9.342 20.4231 9.33443C20.5129 9.3267 20.6 9.2999 20.6784 9.25586C20.8085 9.06414 21.7155 7.80386 22.8302 7.88243C23.1578 7.90557 23.4755 8.00324 23.7588 8.16786C24.0421 8.33247 24.2832 8.55959 24.4635 8.83157C24.7585 8.78443 25.8082 8.67914 26.6122 9.22129C27.0942 9.54186 27.3987 10.0321 27.5192 10.6733C27.7222 11.7371 27.5985 12.5983 27.1497 13.2269C26.6122 13.978 25.7575 14.1744 25.4102 14.2263C24.4746 14.363 24.2495 14.4149 24.1749 14.9083C24.1575 15.0324 24.2637 15.1236 24.3557 15.1786C24.7585 15.4221 25.7622 15.463 26.5202 14.913C26.8025 14.7119 27.0562 14.4039 27.302 14.1069C27.6635 13.6669 28.0044 13.2536 28.4215 13.2033C28.6292 13.1813 28.8179 13.2677 28.9622 13.4641C29.3872 14.033 29.4252 15.5636 29.0367 16.4341C28.7085 17.1727 27.876 17.6991 27.229 17.8374C26.8025 17.9286 26.4457 17.8641 26.2205 17.663C26.0112 17.4666 26.0017 17.3236 25.989 17.0171C25.989 16.9621 25.9842 16.9024 25.9795 16.838C25.97 16.6966 25.7797 16.6651 25.6687 16.6651C25.4562 16.6683 25.1422 16.8066 25.1422 17.146C25.1739 17.6221 25.1517 18.1124 25.0724 18.5933C24.7949 20.0233 22.5337 20.3627 21.5395 20.3627L21.549 20.3816ZM18.1714 15.6594C18.3617 15.6594 18.5885 15.7474 18.9167 15.8716C19.8523 16.2471 20.5674 17.1083 20.6927 18.0119C20.7767 18.5839 20.6007 19.071 20.198 19.3821C20.1234 19.4419 20.1234 19.4921 20.1377 19.533C20.2011 19.7577 20.7434 20.0783 21.2762 20.138C21.9264 20.2119 24.5777 19.9871 24.8504 18.5713C24.925 18.1124 24.9472 17.6363 24.9155 17.168C24.9155 16.7139 25.304 16.4609 25.6687 16.4483C25.9747 16.4389 26.2015 16.5991 26.2157 16.8333C26.2157 16.9024 26.2237 16.9621 26.2237 17.0171C26.2395 17.3157 26.2427 17.3739 26.3822 17.5074C26.5487 17.6583 26.8342 17.6991 27.1814 17.6269C27.7745 17.5027 28.5325 17.0219 28.829 16.3571C29.1842 15.5589 29.162 14.1194 28.7814 13.6119C28.6863 13.483 28.5785 13.428 28.4532 13.4421C28.1297 13.483 27.8189 13.8586 27.4859 14.2624C27.2322 14.5689 26.969 14.891 26.6597 15.111C25.878 15.6736 24.7759 15.7113 24.2399 15.3844C24.0275 15.2571 23.9212 15.078 23.9545 14.8863C24.0544 14.2074 24.5 14.143 25.3817 14.0094C25.6972 13.9639 26.479 13.7816 26.9642 13.1027C27.3765 12.5244 27.4922 11.7277 27.2972 10.7236C27.1862 10.1421 26.9135 9.70214 26.4885 9.41771C25.637 8.84886 24.4397 9.07357 24.4302 9.07829L24.3509 9.09243L24.3097 9.02329C24.1519 8.76533 23.9338 8.54875 23.6738 8.39177C23.4139 8.2348 23.1197 8.14203 22.816 8.12129C21.7694 8.04743 20.8687 9.39886 20.8592 9.413L20.8449 9.43657L20.8227 9.44914C20.709 9.52294 20.5778 9.56626 20.4422 9.57486C20.3082 9.58273 20.1743 9.56015 20.0505 9.50886C19.9264 9.45582 19.8166 9.37453 19.7302 9.27157C19.6819 9.20795 19.6458 9.13603 19.6239 9.05943C19.6113 9.02068 19.596 8.98287 19.5779 8.94628C19.3937 8.61314 19.0944 8.35699 18.735 8.2248C18.3756 8.09261 17.9801 8.09324 17.6212 8.22657C17.1377 8.37886 16.7217 8.69122 16.443 9.11128C16.1702 9.52771 16.0497 10.0227 16.1005 10.5177C16.2214 10.9253 16.4829 11.278 16.8393 11.514C17.1958 11.7501 17.6246 11.8547 18.0509 11.8094C18.5377 11.778 18.9627 11.9194 19.1942 12.1819C19.3195 12.3233 19.375 12.4883 19.3417 12.6486C19.3004 12.8513 19.1197 13.0336 18.839 13.1624C18.219 13.4374 17.1264 13.4563 16.0719 12.8639L16.0592 12.8544C15.7153 12.5996 15.4286 12.2766 15.2176 11.9059C15.0065 11.5353 14.8757 11.1251 14.8335 10.7016V10.6921L14.8795 10.1516C14.3942 10.1877 12.6595 10.4219 12.2012 11.9839C11.9602 12.801 12.068 13.5333 12.493 14.0613C12.8577 14.5091 13.3572 14.6899 13.6949 14.6663C13.8567 14.6506 13.89 14.5736 13.9407 14.2766C13.9867 14.0063 14.0565 13.6386 14.4117 13.3133C14.5642 13.1703 14.7662 13.0906 14.9762 13.0906C15.1862 13.0906 15.3882 13.1703 15.5407 13.3133C15.6228 13.3974 15.6819 13.5008 15.7124 13.6138C15.7429 13.7268 15.7438 13.8457 15.7151 13.9591C15.6903 14.0709 15.6381 14.175 15.5631 14.2621C15.4882 14.3492 15.3928 14.4168 15.2854 14.4589C15.1475 14.5421 15.0127 14.7669 15.0127 15.056C15.0127 15.2791 15.1015 15.7066 15.7025 16.046C15.861 16.1324 15.9387 16.3147 15.9102 16.5394C15.8737 16.8286 15.6707 17.168 15.3425 17.2544C15.1284 17.3141 14.8049 17.2859 14.4497 16.8301C14.2912 16.6321 14.1897 16.4624 14.1072 16.3289C13.9169 16.0224 13.871 15.9533 13.5887 15.9989H13.5617C13.065 15.9577 12.5932 15.7656 12.2107 15.4489C12.1109 15.4772 12.0241 15.5388 11.9649 15.6233C11.873 15.7427 11.781 15.9533 11.892 16.2739L11.9713 16.5316C12.16 17.1963 12.3534 17.8877 14.4497 17.9521C15.0127 17.9521 15.222 18.0889 15.3457 18.5477C15.3932 18.7316 15.842 19.5189 16.6364 19.8536C17.1772 20.083 17.7417 20.0374 18.3205 19.7216L18.3379 19.7121C18.607 19.6208 18.8393 19.4463 19.0009 19.2144C19.1625 18.9825 19.2447 18.7053 19.2354 18.4236C19.2273 18.1422 19.1302 17.8705 18.9578 17.6469C18.7853 17.4233 18.5463 17.259 18.2745 17.1774C18.1374 17.1423 18.011 17.0748 17.906 16.9807C17.8011 16.8865 17.7208 16.7685 17.6719 16.6369C17.6257 16.5026 17.6116 16.3595 17.6307 16.2189C17.6542 16.08 17.7095 15.9482 17.7924 15.8339L17.8019 15.8213C17.8465 15.7728 17.9009 15.7341 17.9616 15.7079C18.0222 15.6816 18.0878 15.6683 18.154 15.6689L18.1714 15.6594ZM21.438 16.3619H21.3682L21.3444 16.3147C21.2347 16.2899 21.1321 16.2408 21.0442 16.1711C20.9564 16.1015 20.8855 16.013 20.837 15.9124C20.7672 15.7616 20.7847 15.6139 20.8877 15.5086C21.2429 15.0639 21.4142 14.5013 21.3635 13.923C21.3635 13.6071 21.2429 13.4091 21.1272 13.2221C21.04 13.0744 20.9559 12.9377 20.9432 12.768C20.9445 12.6033 21.0031 12.4441 21.1091 12.3172C21.2151 12.1904 21.3621 12.1037 21.5252 12.0719C21.6051 12.0481 21.6897 12.0445 21.7713 12.0612C21.853 12.0779 21.9292 12.1145 21.993 12.1677C22.4211 12.4977 22.7097 13.5144 22.64 14.4871C22.6495 15.1283 22.4465 15.7191 22.104 16.0633C22.0186 16.1545 21.9157 16.2278 21.8013 16.2791C21.687 16.3304 21.5635 16.3585 21.438 16.3619ZM21.6695 12.2824C21.641 12.2824 21.6172 12.2824 21.5902 12.2966H21.5759C21.4655 12.3201 21.3655 12.3779 21.2905 12.4616C21.2159 12.5448 21.1742 12.652 21.1732 12.7633C21.1779 12.8686 21.2477 12.9739 21.3222 13.1027C21.4427 13.2991 21.5902 13.5427 21.5902 13.9136C21.6457 14.5374 21.4554 15.155 21.059 15.6563C21.04 15.6736 20.9987 15.7191 21.0431 15.8213C21.1097 15.9627 21.2842 16.0963 21.4142 16.0963H21.484L21.5014 16.1324C21.6686 16.1098 21.8227 16.0304 21.9375 15.9077C22.2324 15.6091 22.4132 15.0639 22.4084 14.4871C22.4687 13.6071 22.2102 12.6344 21.8487 12.3563C21.798 12.3137 21.7343 12.2894 21.6679 12.2871V12.2824H21.6695ZM24.3018 12.5291C23.6967 12.5332 23.1098 12.3238 22.6463 11.9383C22.3219 11.6152 22.0871 11.2147 21.9644 10.7754C21.8401 10.3275 21.8309 9.85593 21.9375 9.40357V9.38943C22.1722 8.78914 22.5654 8.82214 22.7319 8.83629H22.7557C22.9872 8.85357 23.4122 9.05629 23.39 9.47743V9.49157C23.3329 9.77914 23.2552 10.5821 23.5597 10.8194C24.0448 11.1244 24.632 11.2266 25.193 11.1039H25.2485C25.3678 11.1393 25.4743 11.2078 25.5556 11.3014C25.6368 11.395 25.6892 11.5097 25.7067 11.6319C25.7237 11.7528 25.7073 11.8761 25.6592 11.9886C25.6102 12.1025 25.5286 12.1998 25.4245 12.2683L25.4102 12.2777C25.0582 12.4427 24.6808 12.5244 24.2954 12.5244L24.3018 12.5291ZM22.1595 9.46486C22.0651 9.8756 22.0743 10.3031 22.1864 10.7094C22.2927 11.1086 22.5052 11.4716 22.8017 11.7639C23.1395 12.0436 23.5597 12.2227 24.0084 12.2777C24.4524 12.3327 24.9012 12.2589 25.3087 12.0719C25.3723 12.0273 25.4231 11.9672 25.4562 11.8974C25.4873 11.8235 25.4983 11.7427 25.4879 11.6633C25.4746 11.5848 25.4419 11.5109 25.3928 11.448C25.347 11.3935 25.2873 11.3523 25.2199 11.3286C24.6047 11.4578 23.963 11.3409 23.4344 11.0033C22.9682 10.6371 23.1395 9.60471 23.168 9.45386C23.1759 9.16157 22.816 9.06886 22.751 9.06414H22.7224C22.5797 9.05157 22.3387 9.03271 22.1674 9.46328L22.1595 9.46486Z" fill="#FF761C"/>
<path d="M61.0508 10.926V32.0743C61.0508 32.0743 80.0683 35.9651 80.0683 21.5048C80.0683 7.04456 61.0508 10.926 61.0508 10.926ZM65.976 28.4034V14.7163C65.976 14.7163 75.0923 12.829 75.0923 21.5284C75.0923 29.3321 65.976 28.4066 65.976 28.4066V28.4018V28.4034ZM91.0018 15.392C86.4428 15.392 83.0938 19.2263 83.0938 23.9657C83.0938 28.7051 86.4412 32.5457 91.0018 32.5457C95.5623 32.5457 98.8653 28.7098 98.8653 23.9704C98.8653 19.231 95.5623 15.3951 91.0018 15.3951V15.3904V15.392ZM90.9891 28.6784C88.2823 28.6784 87.6908 25.9457 87.6908 23.9704C87.6908 21.9951 88.0048 19.3284 90.9891 19.3284C93.9702 19.3284 94.2667 21.9904 94.2667 23.9704C94.2667 25.9504 93.6753 28.6784 90.9891 28.6784ZM102.823 16.4951V31.9863H107.258V19.5201C107.258 19.5201 109.954 18.7266 112.374 19.8313C113.088 17.1504 113.249 16.206 113.249 16.206C113.249 16.206 110.991 15.2443 108.04 15.4313C105.091 15.6246 102.823 16.4904 102.823 16.4904V16.4951ZM123.201 15.3904C118.313 14.974 116.07 16.2657 116.07 16.2657L116.495 19.7401C116.495 19.7401 119.312 18.5993 122.331 19.1587C124.44 19.5516 124.289 22.1004 124.289 22.1004H120.214C118.956 22.1004 117.708 22.3801 116.621 23.0118C115.427 23.7096 114.428 24.7813 114.331 26.8068C114.145 30.6993 116.524 31.859 118.11 32.1968C120.103 32.1968 123.752 32.266 125.455 32.1968C126.47 32.1386 127.465 31.8901 128.387 31.4646V19.4934C128.387 19.4934 128.09 15.799 123.201 15.3857V15.3904ZM124.289 28.7884H120.349C120.349 28.7884 118.79 28.6407 118.79 27.1007C118.79 25.7351 119.687 25.1034 120.534 25.1034H124.284V28.7884H124.289ZM163.383 15.3904C158.495 14.974 156.252 16.2657 156.252 16.2657L156.673 19.7401C156.673 19.7401 159.489 18.5993 162.51 19.1587C164.623 19.5516 164.466 22.1004 164.466 22.1004H160.391C159.134 22.1004 157.886 22.3801 156.798 23.0118C155.604 23.7096 154.605 24.7813 154.508 26.8068C154.322 30.6993 156.701 31.859 158.287 32.1968C160.28 32.1968 163.929 32.266 165.632 32.1968C167.218 32.134 168.564 31.4646 168.564 31.4646V19.4934C168.564 19.4934 168.267 15.799 163.379 15.3857L163.383 15.3904ZM164.471 28.7884H160.531C160.531 28.7884 158.972 28.6407 158.972 27.1007C158.972 25.7351 159.868 25.1034 160.715 25.1034H164.466V28.7884H164.471ZM146.053 10.5363V19.1021H137.933V10.5378H133.02V31.881H137.933V23.3104H146.053V31.881H150.966V10.5363H146.05H146.053ZM185.2 16.3301L184.288 19.7213C184.288 19.7213 176.843 17.5166 176.916 23.961C176.995 30.4054 182.781 28.911 184.562 28.0043C184.958 30.649 185.195 31.6704 185.195 31.6704C185.195 31.6704 181.467 32.981 178.221 32.2251C174.968 31.474 171.8 29.0666 172.037 23.7646C172.273 18.4563 175.926 16.6743 177.666 15.9263C180.603 14.6754 185.195 16.3301 185.195 16.3301H185.2ZM188.53 8.91927L193.242 8.20898V21.6196L198.556 15.7801H203.71L197.373 22.9207C197.373 22.9207 202.839 29.2048 203.995 31.881C202.451 31.8354 198.645 31.881 198.645 31.881C198.645 31.881 196.985 27.921 193.331 25.1034V31.881H188.691L188.534 8.91456L188.53 8.91927ZM217.653 16.294L216.743 19.6066C216.743 19.6066 210.983 17.9613 210.558 20.0418C210.244 21.6196 213.712 22.399 214.564 22.8013C216.82 23.8698 218.301 25.0107 218.301 27.459C218.301 29.9057 217.177 32.4718 211.552 32.4718C205.93 32.4718 205.568 31.331 205.568 31.331L206.48 27.7796C206.48 27.7796 208.635 29.2143 212.307 28.7963C214.564 28.5354 213.828 26.7943 211.931 26.051C210.04 25.3046 205.105 24.291 206.396 19.4604C208.15 12.9468 217.653 16.2971 217.653 16.2971V16.294Z" fill="#060001"/>
<defs>
<linearGradient id="paint0_linear_71_953" x1="9.24896" y1="39.9469" x2="40.3596" y2="8.4662" gradientUnits="userSpaceOnUse">
<stop stop-color="#FF761C"/>
<stop offset="0.98" stop-color="#FFF9F5"/>
</linearGradient>
</defs>
</svg>
