<svg width="152" height="32" viewBox="0 0 152 32" fill="none" xmlns="http://www.w3.org/2000/svg">
<g clip-path="url(#clip0_71_943)">
<path d="M87.7079 19.925C87.4512 19.6683 87.3223 19.3018 87.3223 18.8257V0.328125H88.8925V18.8832H99.7402V20.3106H88.7785C88.3216 20.3106 87.9647 20.1818 87.7079 19.925Z" fill="black"/>
<path d="M114.161 14.4868H105.169L102.971 20.3106H101.344L108.965 0.328125H109.708C110.165 0.328125 110.507 0.623188 110.736 1.21332L117.958 20.3106H116.331L114.161 14.4868ZM105.654 13.1455H113.676L109.679 2.44056H109.65L105.654 13.1455Z" fill="black"/>
<path d="M120.56 19.9102C120.293 19.6439 120.16 19.2923 120.16 18.8545V0.328125H128.467C130.047 0.328125 131.317 0.718061 132.278 1.4988C133.239 2.27954 133.719 3.30749 133.719 4.58174V6.20851C133.719 6.98925 133.548 7.70732 133.206 8.3636C132.863 9.01987 132.407 9.52992 131.836 9.89114V9.91986C132.787 10.1479 133.549 10.6197 134.12 11.3325C134.691 12.0462 134.976 12.8792 134.976 13.8305V15.372C134.976 16.856 134.49 18.0511 133.52 18.9545C132.549 19.8589 131.255 20.3106 129.638 20.3106H121.616C121.179 20.3106 120.826 20.1775 120.561 19.9111L120.56 19.9102ZM129.038 9.54819C129.97 9.54819 130.722 9.24443 131.293 8.63428C131.864 8.02588 132.15 7.21642 132.15 6.20764V4.58087C132.15 3.74355 131.812 3.05855 131.137 2.52587C130.461 1.99319 129.571 1.72685 128.467 1.72685H121.73V9.54819H129.038ZM129.495 18.8832C130.675 18.8832 131.622 18.5646 132.335 17.9266C133.049 17.2895 133.406 16.4374 133.406 15.372V13.8305C133.406 12.9558 133.096 12.2464 132.478 11.7042C131.859 11.1619 131.046 10.8904 130.037 10.8904H121.73V18.8832H129.495Z" fill="black"/>
<path d="M138.747 19.0254C137.747 18.0166 137.248 16.6466 137.248 14.9146H138.789C138.789 16.2088 139.15 17.2315 139.874 17.9836C140.597 18.7356 141.576 19.1107 142.814 19.1107H146.011C147.21 19.1107 148.176 18.8348 148.908 18.283C149.64 17.7312 150.008 17.0087 150.008 16.1131V14.1721C150.008 13.4488 149.741 12.83 149.209 12.3164C148.676 11.8029 147.934 11.4695 146.982 11.3172L141.872 10.4608C140.502 10.2327 139.432 9.73747 138.66 8.97675C137.889 8.21602 137.505 7.26381 137.505 6.12186V4.46637C137.505 3.15295 137.999 2.09716 138.989 1.29814C139.978 0.499119 141.281 0.0996094 142.899 0.0996094H146.125C147.666 0.0996094 148.908 0.566139 149.85 1.49833C150.792 2.43139 151.263 3.65865 151.263 5.18096H149.721C149.721 4.0773 149.393 3.18776 148.736 2.51147C148.08 1.83604 147.209 1.49833 146.124 1.49833H142.898C141.737 1.49833 140.809 1.76989 140.115 2.31215C139.42 2.8544 139.073 3.57335 139.073 4.46724V6.12273C139.073 6.88432 139.33 7.52145 139.844 8.03498C140.359 8.54851 141.081 8.88188 142.014 9.03419L147.095 9.91938C148.504 10.1666 149.602 10.6618 150.392 11.4034C151.182 12.1458 151.577 13.0693 151.577 14.1721V16.1131C151.577 17.4457 151.072 18.5162 150.064 19.3248C149.056 20.1343 147.713 20.5382 146.04 20.5382H142.785C141.091 20.5382 139.745 20.0342 138.746 19.0254H138.747Z" fill="black"/>
<path d="M20.9625 1.08451C19.2714 0.360343 17.3452 0 15.1814 0H0V27.5462C0 28.8196 0.409955 29.8493 1.22812 30.637C2.04629 31.4264 3.1073 31.8198 4.40941 31.8198H15.365C19.3036 31.8198 22.2899 30.811 24.3196 28.7961C25.0012 28.1207 25.5678 27.3382 26.0204 26.4486L20.9625 1.08451ZM21.0914 19.6369C21.0914 21.819 20.5909 23.471 19.5917 24.5921C18.5907 25.7132 17.1206 26.2737 15.1814 26.2737H6.27292V5.54614H15.0003C16.8186 5.54614 18.2878 6.06838 19.4089 7.11372C20.53 8.15907 21.0905 9.5456 21.0905 11.2733L21.0914 19.6369Z" fill="black"/>
<path d="M82.9794 5.45388V0H64.3382L64.2381 0.500476L59.1602 25.761V31.8198H65.4323V19.4559H81.2969V14.0003H65.4323V5.45388H82.9794Z" fill="black"/>
<path d="M61.7475 0L59.1616 12.8679L56.0664 28.2738C55.8236 29.4854 55.3753 30.3811 54.7243 30.9564C54.0732 31.5317 53.1872 31.8207 52.0652 31.8207H49.4288L42.6563 10.0017H42.564L35.6549 31.8207H33.0184C31.9879 31.8207 31.1236 31.5631 30.4282 31.0469C29.7292 30.5325 29.2453 29.6082 28.9737 28.2738L27.3618 20.1914L23.922 2.93235L23.3379 0.000870393H29.7022L33.6112 22.5937H33.7017L40.2923 1.6816H42.5649C43.3222 1.6816 43.9819 1.87831 44.5424 2.2726C45.103 2.66688 45.5347 3.37974 45.8385 4.40854L51.3846 22.5458H51.4751L55.3841 0H61.7475Z" fill="black"/>
<path d="M102.43 23.7372C103.901 23.7372 105.214 24.1489 106.33 24.9601C107.164 25.5668 107.788 26.3223 108.338 26.9899C108.782 27.5269 109.241 28.0831 109.704 28.419C109.993 28.6288 110.279 28.7681 110.736 28.7681C111.194 28.7681 111.481 28.6279 111.769 28.4182C112.232 28.0813 112.69 27.526 113.134 26.989C113.684 26.3223 114.309 25.5668 115.143 24.9592C116.26 24.148 117.572 23.7363 119.043 23.7363C120.514 23.7363 121.826 24.148 122.942 24.9592C123.777 25.5659 124.401 26.3214 124.951 26.989C125.395 27.526 125.853 28.0813 126.316 28.4182C126.605 28.6279 126.891 28.7681 127.349 28.7681C127.807 28.7681 128.093 28.6279 128.381 28.4182C128.845 28.0813 129.303 27.526 129.747 26.989C130.298 26.3223 130.922 25.5659 131.756 24.9601C132.872 24.1489 134.184 23.7372 135.655 23.7372C137.126 23.7372 138.438 24.1489 139.554 24.9601C140.389 25.5668 141.013 26.3223 141.563 26.9899C142.006 27.5269 142.465 28.0822 142.929 28.419C143.218 28.6288 143.504 28.7689 143.962 28.7689C144.42 28.7689 144.706 28.6288 144.995 28.419C145.459 28.0822 145.917 27.5269 146.361 26.9899C146.912 26.3231 147.536 25.5668 148.37 24.9601C149.221 24.3421 150.185 23.9557 151.247 23.8068V27.2135C151.247 27.2135 151.24 27.2188 151.237 27.2214C150.773 27.5582 150.315 28.1135 149.871 28.6506C149.32 29.3173 148.696 30.0737 147.862 30.6803C146.745 31.4915 145.434 31.9032 143.963 31.9032C142.492 31.9032 141.179 31.4915 140.063 30.6803C139.229 30.0737 138.606 29.3182 138.055 28.6514C137.611 28.1135 137.152 27.5582 136.689 27.2214C136.401 27.0116 136.114 26.8715 135.657 26.8715C135.199 26.8715 134.912 27.0116 134.624 27.2214C134.161 27.5582 133.703 28.1135 133.26 28.6506C132.709 29.3182 132.085 30.0737 131.25 30.6803C130.133 31.4915 128.821 31.9032 127.35 31.9032C125.88 31.9032 124.568 31.4915 123.451 30.6803C122.616 30.0737 121.992 29.3182 121.442 28.6506C120.999 28.1135 120.541 27.5582 120.077 27.2214C119.788 27.0116 119.502 26.8715 119.044 26.8715C118.586 26.8715 118.3 27.0116 118.012 27.2214C117.548 27.5582 117.09 28.1135 116.646 28.6506C116.095 29.3173 115.471 30.0737 114.638 30.6794C113.521 31.4907 112.209 31.9024 110.738 31.9024C109.267 31.9024 107.956 31.4907 106.839 30.6794C106.004 30.0728 105.38 29.3173 104.83 28.6497C104.387 28.1127 103.928 27.5574 103.464 27.2205C103.175 27.0107 102.89 26.8706 102.432 26.8706C101.974 26.8706 101.688 27.0107 101.4 27.2205C100.937 27.5574 100.479 28.1118 100.035 28.6488C99.4834 29.3173 98.8593 30.0728 98.0255 30.6794C96.9088 31.4907 95.5971 31.9024 94.1262 31.9024C92.6552 31.9024 91.3435 31.4907 90.2268 30.6794C89.3921 30.0728 88.768 29.3173 88.2179 28.6506C87.774 28.1135 87.3162 27.5582 86.8523 27.2214C86.8488 27.2188 86.8453 27.2162 86.8418 27.2135V23.8068C87.9037 23.9557 88.8681 24.3412 89.7194 24.9601C90.5541 25.5668 91.1781 26.3223 91.7282 26.9899C92.1712 27.5269 92.6299 28.0822 93.0939 28.419C93.3828 28.6288 93.6683 28.7681 94.1262 28.7681C94.584 28.7681 94.8703 28.6279 95.1584 28.419C95.6215 28.0822 96.0802 27.5269 96.5232 26.9899C97.0742 26.3223 97.6982 25.5668 98.5329 24.9601C99.6497 24.1489 100.961 23.7372 102.432 23.7372H102.43Z" fill="black"/>
</g>
<defs>
<clipPath id="clip0_71_943">
<rect width="152" height="32" fill="white"/>
</clipPath>
</defs>
</svg>
